<?xml version="1.0" encoding="utf-8"?>
<svg viewBox="0 0 100 100" xmlns="http://www.w3.org/2000/svg">
  <g
    transform="matrix(1.023218035698, 0, 0, 0.972430050373, 9.554495480761, -0.563721056378)"
    style="transform-origin: -6.40381px 0.563722px"
  >
    <g>
      <path
        d="M8.55750708,13.7790368 C8.55750708,27.5580737 17.1150142,35.8254958 34.2300283,40.1767705 L52.3603399,44.3830028 C68.6050992,48.1541076 78.4679887,57.4368272 78.4679887,72.5212465 C78.6130312,79.0481586 76.4373938,85.4300283 72.5212465,90.6515581 C72.5212465,75.5671388 64.6889518,67.4447592 45.9784703,62.5133144 L28.1382436,58.4521246 C13.7790368,55.2611898 2.75580737,47.5739377 2.75580737,31.184136 C2.75580737,24.9473088 4.78640227,18.7104816 8.55750708,13.7790368"
        fill="#F04939"
      />
      <path
        d="M61.3529745,68.7501416 C69.0402266,73.6815864 72.5212465,80.6436261 72.5212465,90.6515581 C65.9943343,98.9189802 54.8260623,103.415297 41.6271955,103.415297 C19.4356941,103.415297 3.62606232,92.392068 0.290084986,73.3915014 L21.6113314,73.3915014 C24.3671388,82.094051 31.6192635,86.1552408 41.482153,86.1552408 C53.2305949,86.3002833 61.207932,79.9184136 61.3529745,68.7501416 M8.55750708,13.6339943 C14.7943343,5.51161473 25.5274788,0.580169972 38.5813031,0.580169972 C61.3529745,0.580169972 74.4067989,12.6186969 77.7427762,29.4436261 L57.1467422,29.4436261 C54.8260623,22.7716714 49.1694051,17.5501416 38.8713881,17.5501416 C27.7031161,17.6951841 20.1609065,24.0770538 19.725779,34.2300283 C12.2517705,30.1081799 8.2674221,22.0464589 8.55750708,13.6339943 Z"
        fill="#F37368"
      />
    </g>
  </g>
</svg>
