<svg
  xmlns="http://www.w3.org/2000/svg"
  version="1.1"
  xmlns:xlink="http://www.w3.org/1999/xlink"
  xmlns:svgjs="http://svgjs.dev/svgjs"
  viewBox="0 0 800 800"
>
  <defs>
    <linearGradient
      x1="50%"
      y1="0%"
      x2="50%"
      y2="100%"
      id="ffflurry-grad"
      gradientTransform="rotate(270)"
    >
      <stop stop-color="#0c0a09" stop-opacity="1" offset="0%"></stop>
      <stop stop-color="#1c1917" stop-opacity="1" offset="45%"></stop>
      <stop stop-color="#292524" stop-opacity="1" offset="100%"></stop>
    </linearGradient>
  </defs>
  <rect width="100%" height="100%" fill="#0c0a09"></rect>
  <g fill="url(#ffflurry-grad)">
    <rect
      width="138"
      height="3"
      x="227"
      y="129.5"
      rx="1.5"
      transform="rotate(21, 295, 100)"
      opacity="0.72"
    ></rect>
    <rect
      width="241"
      height="3"
      x="559.5"
      y="345.5"
      rx="1.5"
      transform="rotate(21, 680, 347)"
      opacity="0.37"
    ></rect>
    <rect
      width="126"
      height="3"
      x="625"
      y="278.5"
      rx="1.5"
      transform="rotate(21, 688, 280)"
      opacity="0.40"
    ></rect>
    <rect
      width="562"
      height="3"
      x="370"
      y="709.5"
      rx="1.5"
      transform="rotate(21, 651, 711)"
      opacity="0.44"
    ></rect>
    <rect
      width="605"
      height="3"
      x="-264.5"
      y="265.5"
      rx="1.5"
      transform="rotate(21, 38, 267)"
      opacity="0.20"
    ></rect>
    <rect
      width="806"
      height="3"
      x="-83"
      y="213.5"
      rx="1.5"
      transform="rotate(21, 320, 215)"
      opacity="0.47"
    ></rect>
    <rect
      width="183"
      height="3"
      x="46.5"
      y="40.5"
      rx="1.5"
      transform="rotate(21, 138, 42)"
      opacity="0.10"
    ></rect>
    <rect
      width="813"
      height="3"
      x="-200.5"
      y="583.5"
      rx="1.5"
      transform="rotate(21, 206, 585)"
      opacity="0.76"
    ></rect>
    <rect
      width="254"
      height="3"
      x="355"
      y="254.5"
      rx="1.5"
      transform="rotate(21, 482, 256)"
      opacity="0.54"
    ></rect>
    <rect
      width="720"
      height="3"
      x="-120"
      y="497.5"
      rx="1.5"
      transform="rotate(21, 240, 499)"
      opacity="0.23"
    ></rect>
    <rect
      width="444"
      height="3"
      x="527"
      y="199.5"
      rx="1.5"
      transform="rotate(21, 749, 201)"
      opacity="0.09"
    ></rect>
    <rect
      width="796"
      height="3"
      x="-55"
      y="509.5"
      rx="1.5"
      transform="rotate(21, 343, 511)"
      opacity="0.73"
    ></rect>
    <rect
      width="186"
      height="3"
      x="631"
      y="365.5"
      rx="1.5"
      transform="rotate(21, 724, 367)"
      opacity="0.08"
    ></rect>
    <rect
      width="415"
      height="3"
      x="517.5"
      y="720.5"
      rx="1.5"
      transform="rotate(21, 725, 722)"
      opacity="0.68"
    ></rect>
    <rect
      width="589"
      height="3"
      x="-107.5"
      y="303.5"
      rx="1.5"
      transform="rotate(21, 187, 305)"
      opacity="0.97"
    ></rect>
    <rect
      width="184"
      height="3"
      x="658"
      y="493.5"
      rx="1.5"
      transform="rotate(21, 750, 495)"
      opacity="0.53"
    ></rect>
    <rect
      width="136"
      height="3"
      x="696"
      y="687.5"
      rx="1.5"
      transform="rotate(21, 764, 689)"
      opacity="0.36"
    ></rect>
    <rect
      width="596"
      height="3"
      x="446"
      y="612.5"
      rx="1.5"
      transform="rotate(21, 744, 614)"
      opacity="0.43"
    ></rect>
    <rect
      width="501"
      height="3"
      x="-33.5"
      y="52.5"
      rx="1.5"
      transform="rotate(21, 217, 54)"
      opacity="0.16"
    ></rect>
    <rect
      width="73"
      height="3"
      x="346.5"
      y="277.5"
      rx="1.5"
      transform="rotate(21, 383, 279)"
      opacity="0.82"
    ></rect>
    <rect
      width="604"
      height="3"
      x="4"
      y="39.5"
      rx="1.5"
      transform="rotate(21, 306, 41)"
      opacity="0.90"
    ></rect>
    <rect
      width="582"
      height="3"
      x="290"
      y="492.5"
      rx="1.5"
      transform="rotate(21, 581, 494)"
      opacity="0.50"
    ></rect>
    <rect
      width="394"
      height="3"
      x="465"
      y="560.5"
      rx="1.5"
      transform="rotate(21, 662, 562)"
      opacity="0.34"
    ></rect>
    <rect
      width="655"
      height="3"
      x="327.5"
      y="430.5"
      rx="1.5"
      transform="rotate(21, 655, 432)"
      opacity="0.64"
    ></rect>
    <rect
      width="278"
      height="3"
      x="272"
      y="468.5"
      rx="1.5"
      transform="rotate(21, 411, 470)"
      opacity="0.72"
    ></rect>
    <rect
      width="786"
      height="3"
      x="88"
      y="345.5"
      rx="1.5"
      transform="rotate(21, 481, 347)"
      opacity="1.00"
    ></rect>
    <rect
      width="229"
      height="3"
      x="518.5"
      y="140.5"
      rx="1.5"
      transform="rotate(21, 633, 142)"
      opacity="0.88"
    ></rect>
    <rect
      width="646"
      height="3"
      x="-224"
      y="561.5"
      rx="1.5"
      transform="rotate(21, 99, 563)"
      opacity="0.15"
    ></rect>
    <rect
      width="598"
      height="3"
      x="-195"
      y="135.5"
      rx="1.5"
      transform="rotate(21, 104, 137)"
      opacity="0.25"
    ></rect>
    <rect
      width="320"
      height="3"
      x="-68"
      y="485.5"
      rx="1.5"
      transform="rotate(21, 92, 487)"
      opacity="0.16"
    ></rect>
    <rect
      width="269"
      height="3"
      x="212.5"
      y="602.5"
      rx="1.5"
      transform="rotate(21, 347, 604)"
      opacity="0.48"
    ></rect>
    <rect
      width="91"
      height="3"
      x="152.5"
      y="151.5"
      rx="1.5"
      transform="rotate(21, 198, 153)"
      opacity="0.54"
    ></rect>
    <rect
      width="809"
      height="3"
      x="140.5"
      y="405.5"
      rx="1.5"
      transform="rotate(21, 545, 407)"
      opacity="0.27"
    ></rect>
    <rect
      width="167"
      height="3"
      x="674.5"
      y="786.5"
      rx="1.5"
      transform="rotate(21, 758, 788)"
      opacity="0.33"
    ></rect>
    <rect
      width="599"
      height="3"
      x="-243.5"
      y="628.5"
      rx="1.5"
      transform="rotate(21, 56, 630)"
      opacity="0.68"
    ></rect>
    <rect
      width="264"
      height="3"
      x="39"
      y="755.5"
      rx="1.5"
      transform="rotate(21, 171, 757)"
      opacity="0.96"
    ></rect>
    <rect
      width="172"
      height="3"
      x="702"
      y="752.5"
      rx="1.5"
      transform="rotate(21, 788, 754)"
      opacity="0.56"
    ></rect>
    <rect
      width="309"
      height="3"
      x="-122.5"
      y="150.5"
      rx="1.5"
      transform="rotate(21, 32, 152)"
      opacity="0.19"
    ></rect>
    <rect
      width="220"
      height="3"
      x="-67"
      y="405.5"
      rx="1.5"
      transform="rotate(21, 43, 407)"
      opacity="0.62"
    ></rect>
    <rect
      width="227"
      height="3"
      x="532.5"
      y="65.5"
      rx="1.5"
      transform="rotate(21, 646, 67)"
      opacity="0.38"
    ></rect>
    <rect
      width="108"
      height="3"
      x="154"
      y="683.5"
      rx="1.5"
      transform="rotate(21, 208, 685)"
      opacity="0.19"
    ></rect>
    <rect
      width="213"
      height="3"
      x="371.5"
      y="453.5"
      rx="1.5"
      transform="rotate(21, 478, 455)"
      opacity="0.37"
    ></rect>
    <rect
      width="578"
      height="3"
      x="159"
      y="588.5"
      rx="1.5"
      transform="rotate(21, 448, 590)"
      opacity="0.81"
    ></rect>
    <rect
      width="144"
      height="3"
      x="495"
      y="703.5"
      rx="1.5"
      transform="rotate(21, 567, 705)"
      opacity="0.84"
    ></rect>
    <rect
      width="636"
      height="3"
      x="-215"
      y="302.5"
      rx="1.5"
      transform="rotate(21, 103, 304)"
      opacity="0.13"
    ></rect>
    <rect
      width="189"
      height="3"
      x="537.5"
      y="218.5"
      rx="1.5"
      transform="rotate(21, 632, 220)"
      opacity="0.09"
    ></rect>
    <rect
      width="669"
      height="3"
      x="4.5"
      y="761.5"
      rx="1.5"
      transform="rotate(21, 339, 763)"
      opacity="0.47"
    ></rect>
    <rect
      width="675"
      height="3"
      x="-176.5"
      y="404.5"
      rx="1.5"
      transform="rotate(21, 161, 406)"
      opacity="0.22"
    ></rect>
    <rect
      width="100"
      height="3"
      x="511"
      y="263.5"
      rx="1.5"
      transform="rotate(21, 561, 265)"
      opacity="0.30"
    ></rect>
    <rect
      width="114"
      height="3"
      x="254"
      y="678.5"
      rx="1.5"
      transform="rotate(21, 311, 680)"
      opacity="0.87"
    ></rect>
    <rect
      width="689"
      height="3"
      x="112.5"
      y="725.5"
      rx="1.5"
      transform="rotate(21, 457, 727)"
      opacity="0.65"
    ></rect>
    <rect
      width="109"
      height="3"
      x="554.5"
      y="340.5"
      rx="1.5"
      transform="rotate(21, 609, 342)"
      opacity="0.70"
    ></rect>
    <rect
      width="455"
      height="3"
      x="538.5"
      y="401.5"
      rx="1.5"
      transform="rotate(21, 766, 403)"
      opacity="0.94"
    ></rect>
    <rect
      width="794"
      height="3"
      x="358"
      y="74.5"
      rx="1.5"
      transform="rotate(21, 755, 76)"
      opacity="0.99"
    ></rect>
    <rect
      width="162"
      height="3"
      x="674"
      y="756.5"
      rx="1.5"
      transform="rotate(21, 755, 758)"
      opacity="0.63"
    ></rect>
    <rect
      width="79"
      height="3"
      x="16.5"
      y="739.5"
      rx="1.5"
      transform="rotate(21, 56, 741)"
      opacity="0.50"
    ></rect>
    <rect
      width="188"
      height="3"
      x="674"
      y="300.5"
      rx="1.5"
      transform="rotate(21, 768, 302)"
      opacity="0.96"
    ></rect>
    <rect
      width="187"
      height="3"
      x="369.5"
      y="166.5"
      rx="1.5"
      transform="rotate(21, 463, 168)"
      opacity="0.46"
    ></rect>
    <rect
      width="372"
      height="3"
      x="114"
      y="417.5"
      rx="1.5"
      transform="rotate(21, 300, 419)"
      opacity="0.72"
    ></rect>
    <rect
      width="506"
      height="3"
      x="-207"
      y="44.5"
      rx="1.5"
      transform="rotate(21, 46, 46)"
      opacity="0.45"
    ></rect>
    <rect
      width="768"
      height="3"
      x="23"
      y="61.5"
      rx="1.5"
      transform="rotate(21, 407, 63)"
      opacity="0.67"
    ></rect>
    <rect
      width="156"
      height="3"
      x="450"
      y="63.5"
      rx="1.5"
      transform="rotate(21, 528, 65)"
      opacity="0.87"
    ></rect>
    <rect
      width="102"
      height="3"
      x="207"
      y="333.5"
      rx="1.5"
      transform="rotate(21, 258, 335)"
      opacity="0.56"
    ></rect>
    <rect
      width="226"
      height="3"
      x="431"
      y="579.5"
      rx="1.5"
      transform="rotate(21, 544, 581)"
      opacity="0.22"
    ></rect>
    <rect
      width="538"
      height="3"
      x="108"
      y="363.5"
      rx="1.5"
      transform="rotate(21, 377, 365)"
      opacity="0.64"
    ></rect>
    <rect
      width="71"
      height="3"
      x="625.5"
      y="15.5"
      rx="1.5"
      transform="rotate(21, 661, 17)"
      opacity="0.35"
    ></rect>
    <rect
      width="135"
      height="3"
      x="99.5"
      y="224.5"
      rx="1.5"
      transform="rotate(21, 167, 226)"
      opacity="0.84"
    ></rect>
    <rect
      width="102"
      height="3"
      x="629"
      y="774.5"
      rx="1.5"
      transform="rotate(21, 680, 776)"
      opacity="0.18"
    ></rect>
  </g>
</svg>
